<?xml version="1.0" encoding="utf-8"?>
<!-- Generator: Adobe Illustrator 15.0.2, SVG Export Plug-In  -->
<!DOCTYPE svg PUBLIC "-//W3C//DTD SVG 1.1//EN" "http://www.w3.org/Graphics/SVG/1.1/DTD/svg11.dtd" [
	<!ENTITY ns_flows "http://ns.adobe.com/Flows/1.0/">
]>
<svg version="1.1"
	 xmlns="http://www.w3.org/2000/svg" xmlns:xlink="http://www.w3.org/1999/xlink" xmlns:a="http://ns.adobe.com/AdobeSVGViewerExtensions/3.0/"
	 x="0px" y="0px" width="150px" height="56px" viewBox="-1.485 -5.726 150 56"
	 overflow="visible" enable-background="new -1.485 -5.726 150 56" xml:space="preserve">
<defs>
</defs>
<path d="M107.367,23.669l4.615-0.009c0.753,6.062,6.246,10.818,12.807,10.818c4.056,0,5.161-1.516,7.494-1.939
	c2.151-0.424,3.257-2.907,3.257-4.544c0-0.849-0.49-1.939-1.474-1.939c-0.859,0-2.028,2.303-5.96,2.303
	c-4.794,0-7.374-4.361-7.374-8.664c0-2.303,1.045-4.727,3.75-4.727c5.959,0,4.975,5.876,8.539,5.876
	c1.967,0,3.134-1.573,3.134-3.452c0-3.757-1.844-5.817-3.257-5.817c-0.49,0-0.981,0.244-1.536,0.244
	c-0.798,0-2.948-1.638-6.267-1.638c-5.821,0-11.5,3.938-12.888,9.464h-7.934c-0.61-0.014-1.396,0.234-1.603,0.606
	c-0.319,0.574-0.494,1.17-0.494,1.807c0,0.377,0.012,0.752,0.028,1.124c0.596,11.715,10.429,20.99,22.398,20.99
	c12.35,0,22.425-9.875,22.425-22.114C147.029,9.878,136.954,0,124.604,0c-7.867,0-14.846,4.027-18.852,10.085
	c-0.313,0.288-0.361,0.238-0.723,0.373c-0.373,0.061-0.37,0.021-0.735-0.073c-1.396-0.364-3.277-0.49-4.215-0.49
	c-1.717,0-6.196,0.286-6.196,2.812c0,1.621,1.525,1.478,1.525,3.621c0,1.145-1,4.433-2.431,4.433c-0.811,0-2.907-3.336-2.907-5.147
	c0-1.145,1.097-1.524,1.097-2.812c0-2.716-4.289-2.906-6.101-2.906c-8.857,0-10.577,1.626-10.861,2.991
	c-1.903-1.791-4.672-3.134-8.422-3.134c-4.559,0-8.741,2.177-11.179,5.652c-0.009-3.136-2.102-5.51-5.289-5.51
	c-4.099,0-4.813,3.765-5.957,3.765c-0.812,0-0.764-1.096-0.812-1.668c-0.189-1.62-0.238-2.097-2.049-2.097
	c-0.428,0-11.581,1.048-11.581,4.813c0,2.906,2.955,0.285,2.955,4.957v2.857c0,1.334-0.143,4.052-0.524,5.242
	c-0.462,1.472-2.221,1.646-2.629,3.041c-1.025-1.591-3.024-2.756-6.211-2.756c-1.907,0-7.434,0.812-8.912,0.812
	c-0.958,0-2.683-0.219-3.1-1.263c-0.06-0.149-0.07-0.317-0.093-0.501c-0.055-0.428,0.241-1.124,0.531-1.455
	c0.289-0.331,1.22-0.973,1.483-1.235c0.46-0.461,0.921-1.957,0.484-2.868c-0.67-1.394-1.021-3.409-1.021-4.593
	c0-1.667,0.809-3.431,2.668-3.431c2.668,0,3.098,3.527,3.098,5.48c0,1.859-0.715,3.719-2.859,3.719
	c-0.4,0.053-0.668,0.446-0.731,0.528c-0.062,0.083-0.372,0.725-0.31,1.096c0.062,0.373,0.269,0.932,0.621,1.159
	c0.351,0.228,0.848,0.249,0.848,0.249c4.86-0.249,11.676-1.985,11.676-8.419c0-0.476-0.144-1.001-0.144-1.478
	c0-0.523,2.669-2.431,2.669-5.099c0-0.906-0.477-2.334-1.572-2.334c-0.715,0-2.526,2.524-6.148,2.524
	c-1.531,0-4.425-0.76-6.769-0.886l0,0c-0.533,0-0.932-0.058-1.521,0.012c-0.889,0.057-1.834,0.198-2.785,0.423
	C9.486,10.688,8.448,10.86,7.72,10.86c-3.622,0-5.433-2.526-6.148-2.526C0.477,8.334,0,9.763,0,10.669
	c0,2.668,2.668,4.575,2.668,5.099c0,0.26-0.042,0.533-0.081,0.805c-0.182,0.591-0.285,1.224-0.285,1.9
	c0,3.526,3.241,5.718,3.241,6.29c0,0.668-3.86,1.668-3.86,5.051c0,1.914,1.778,3.164,2.708,3.744
	c2.281,1.341,4.881,2.089,4.881,2.089c0.496,0.082,3.084,0.457,4.181,0.457c1.525,0,3.383-0.284,4.097-0.284
	c0.906,0,1.859,0.429,1.859,1.429c0,2.192-3.574,3.093-5.146,3.093c-1.191,0-3.143-0.274-4.394-1.134
	c-0.523-0.359-2.653-2.483-3.183-2.961C5.634,35.295,4,35.067,3.546,35.161c-0.869,0.181-1.91,1.074-1.91,2.893
	c0,3.05,3.336,6.386,12.153,6.386c11.675,0,15.774-6.429,15.774-10.717c0-0.172-0.009-0.342-0.024-0.511
	c1.859,1.471,6.081,1.416,7.768,1.416c5.242,0,9.437-0.239,9.437-3.24c0-2.859-3.623-1.574-3.908-3.671
	c-0.239-1.811-0.382-3.812-0.382-5.241c0-0.857-0.238-4.052,1.096-4.052c1.239,0,2.098,2.718,5.194,2.718
	c1.514,0,2.922-0.589,3.983-1.552c-0.212,0.906-0.333,1.852-0.333,2.838c0,6.147,4.432,12.343,13.009,12.343
	c4.29,0,11.009-2.668,11.009-6.339c0-0.904-0.858-2.382-1.859-2.382c-1,0-2.763,2.14-6.337,2.144
	c-2.208,0.004-5.076-1.277-6.417-4.022c-1.16-2.257-0.489-5.246-0.489-5.246c0.376-2.252,2.296-4.837,4.19-4.837
	c1.763,0,2.812,1.335,2.812,3.051c0,1.715-1.525,1.427-2.812,1.429c-0.771,0.002-1.681,0.608-1.736,0.856
	c-0.054,0.248-0.552,1.075-0.358,1.875c0.193,0.8,0.662,1.353,0.91,1.518c0.248,0.166,0.605,0.303,0.854,0.303l0.083,0.022h9.253
	c1.525,0,2.955-0.427,2.955-3.573c0-1.14-0.368-2.552-1.126-3.945c0.574,0.286,1.123,0.649,1.444,1.323l6.672,13.963
	c0.57,1.193,1.524,3.004,1.524,4.338c0,1.096-0.572,2.334-1.859,2.334c-1.953,0-0.715-5.051-5.146-5.051
	c-2.431,0-4.242,2.002-4.242,4.385c0,3.956,4.05,5.72,7.48,5.72c7.77,0,10.819-6.196,13.154-12.534l2.812-7.768
	c0.668-1.859,1.431-3.956,2.479-5.624c0.825-1.391,1.903-1.728,2.789-1.912c0.673-0.175,2.796-0.089,4.005-0.693
	c0.442-0.221,0.979-0.892,1.197-1.078c0.441-0.376,0.834-0.893,0.834-0.893c0.123-0.159,0.145-0.218,0.29-0.402
	c3.473-4.429,8.689-7.549,14.838-7.548c10.075,0,18.187,7.998,18.187,17.875c0,9.938-8.111,17.936-18.187,17.936
	c-9.129,0-16.64-6.566-17.972-15.189l0,0C106.593,24.514,106.168,23.478,107.367,23.669"/>
</svg>
