<?xml version="1.0" encoding="utf-8"?>
<!-- Generator: Adobe Illustrator 15.0.0, SVG Export Plug-In  -->
<!DOCTYPE svg PUBLIC "-//W3C//DTD SVG 1.1//EN" "http://www.w3.org/Graphics/SVG/1.1/DTD/svg11.dtd" [
	<!ENTITY ns_flows "http://ns.adobe.com/Flows/1.0/">
]>
<svg version="1.1"
	 xmlns="http://www.w3.org/2000/svg" xmlns:xlink="http://www.w3.org/1999/xlink" xmlns:a="http://ns.adobe.com/AdobeSVGViewerExtensions/3.0/"
	 x="0px" y="0px" width="100px" height="100px" viewBox="-27.562 -10.254 100 100"
	 overflow="visible" enable-background="new -27.562 -10.254 100 100" xml:space="preserve">
<defs>
</defs>
<path d="M3.01,35.49c1.166-1.167,3.076-1.167,4.242,0l36.75,36.749c1.167,1.167,1.167,3.075,0,4.241l-2.134,2.136
	c-1.167,1.167-3.076,1.167-4.243,0L0.875,41.868c-1.166-1.167-1.168-3.076,0-4.243L3.01,35.49z"/>
<path d="M44.002,3.011c1.167,1.166,1.167,3.075,0,4.241L7.254,44.002c-1.168,1.167-3.076,1.167-4.242,0l-2.135-2.135
	c-1.166-1.167-1.168-3.077,0-4.243l36.749-36.75c1.167-1.166,3.076-1.167,4.242,0L44.002,3.011z"/>
</svg>
